<svg xmlns="http://www.w3.org/2000/svg" xmlns:xlink="http://www.w3.org/1999/xlink" viewBox="0 0 160 300" width="160" height="300"><defs><filter id="pc" x="-8%" y="-8%" width="116%" height="116%" color-interpolation-filters="sRGB"><feTurbulence type="fractalNoise" baseFrequency="0.035" numOctaves="2" seed="4" result="w"/><feDisplacementMap in="SourceGraphic" in2="w" scale="2.4" xChannelSelector="R" yChannelSelector="G" result="s"/><feTurbulence type="fractalNoise" baseFrequency="1.1" numOctaves="1" seed="9" result="g"/><feColorMatrix in="g" type="matrix" values="0 0 0 0 0 0 0 0 0 0 0 0 0 0 0 -2 0 0 0 1.72" result="m"/><feComposite in="s" in2="m" operator="in"/></filter><pattern id="h-red" width="4" height="4" patternUnits="userSpaceOnUse" patternTransform="rotate(38)"><rect width="4" height="4" fill="#ee8f7b"/><path d="M0 0V4" stroke="#bf3522" stroke-width="1.44"/></pattern><pattern id="h-green" width="4" height="4" patternUnits="userSpaceOnUse" patternTransform="rotate(45)"><rect width="4" height="4" fill="#a9d196"/><path d="M0 0V4" stroke="#3f8a48" stroke-width="1.44"/></pattern><pattern id="h-pine" width="4" height="4" patternUnits="userSpaceOnUse" patternTransform="rotate(52)"><rect width="4" height="4" fill="#79ab84"/><path d="M0 0V4" stroke="#1f5e38" stroke-width="1.44"/></pattern><pattern id="h-moss" width="4" height="4" patternUnits="userSpaceOnUse" patternTransform="rotate(38)"><rect width="4" height="4" fill="#c3d98f"/><path d="M0 0V4" stroke="#6f9a33" stroke-width="1.44"/></pattern><pattern id="h-blue" width="4" height="4" patternUnits="userSpaceOnUse" patternTransform="rotate(45)"><rect width="4" height="4" fill="#b5d6ee"/><path d="M0 0V4" stroke="#3b7fb8" stroke-width="1.44"/></pattern><pattern id="h-ochre" width="4" height="4" patternUnits="userSpaceOnUse" patternTransform="rotate(52)"><rect width="4" height="4" fill="#f4d58f"/><path d="M0 0V4" stroke="#c48a1c" stroke-width="1.44"/></pattern><pattern id="h-plum" width="4" height="4" patternUnits="userSpaceOnUse" patternTransform="rotate(38)"><rect width="4" height="4" fill="#d3b0d2"/><path d="M0 0V4" stroke="#7b3f7a" stroke-width="1.44"/></pattern><pattern id="h-brown" width="4" height="4" patternUnits="userSpaceOnUse" patternTransform="rotate(45)"><rect width="4" height="4" fill="#d2ab83"/><path d="M0 0V4" stroke="#7a4f2c" stroke-width="1.44"/></pattern><pattern id="h-skin" width="4" height="4" patternUnits="userSpaceOnUse" patternTransform="rotate(52)"><rect width="4" height="4" fill="#f8d8bd"/><path d="M0 0V4" stroke="#e2a27c" stroke-width="1.44"/></pattern><pattern id="h-white" width="4" height="4" patternUnits="userSpaceOnUse" patternTransform="rotate(38)"><rect width="4" height="4" fill="#fffdf6"/><path d="M0 0V4" stroke="#ddd5c6" stroke-width="1.44"/></pattern><pattern id="h-nose" width="4" height="4" patternUnits="userSpaceOnUse" patternTransform="rotate(45)"><rect width="4" height="4" fill="#f4ab96"/><path d="M0 0V4" stroke="#d6705a" stroke-width="1.44"/></pattern><pattern id="h-sky" width="4" height="4" patternUnits="userSpaceOnUse" patternTransform="rotate(52)"><rect width="4" height="4" fill="#dcecf6"/><path d="M0 0V4" stroke="#9cc3de" stroke-width="1.44"/></pattern><pattern id="h-far" width="4" height="4" patternUnits="userSpaceOnUse" patternTransform="rotate(38)"><rect width="4" height="4" fill="#c9dcc4"/><path d="M0 0V4" stroke="#8fb192" stroke-width="1.44"/></pattern><pattern id="h-far2" width="4" height="4" patternUnits="userSpaceOnUse" patternTransform="rotate(45)"><rect width="4" height="4" fill="#b7cfc0"/><path d="M0 0V4" stroke="#7fa295" stroke-width="1.44"/></pattern><pattern id="h-glass" width="4" height="4" patternUnits="userSpaceOnUse" patternTransform="rotate(52)"><rect width="4" height="4" fill="#e6f3fb"/><path d="M0 0V4" stroke="#a9d0ea" stroke-width="1.44"/></pattern><pattern id="h-pink" width="4" height="4" patternUnits="userSpaceOnUse" patternTransform="rotate(38)"><rect width="4" height="4" fill="#f6c1cf"/><path d="M0 0V4" stroke="#d8708f" stroke-width="1.44"/></pattern><pattern id="h-gray" width="4" height="4" patternUnits="userSpaceOnUse" patternTransform="rotate(45)"><rect width="4" height="4" fill="#d9d4cc"/><path d="M0 0V4" stroke="#8c8378" stroke-width="1.44"/></pattern></defs><g transform="translate(90 296) scale(1.6)"><g transform="translate(0 -9)"><g filter="url(#pc)"><path d="M-4 10 C-3 0 -4 -10 -3 -18 L3 -18 C3 -10 4 0 5 10 Z" fill="url(#h-brown)"/><path d="M-20 -16 C-34 -16 -38 -32 -28 -38 C-34 -52 -20 -62 -8 -56 C-4 -70 16 -70 20 -56 C34 -60 42 -44 34 -36 C42 -28 34 -14 22 -16 C14 -8 -8 -8 -20 -16 Z" fill="url(#h-green)"/><g id="L68" fill="none" stroke-width="1.5" stroke-linecap="round" stroke-linejoin="round"><path d="M-4 10 C-3 0 -4 -10 -3 -18 L3 -18 C3 -10 4 0 5 10 Z" stroke="#5a3820"/><path d="M-3 -12 L-11 -22 M3 -14 L10 -24" stroke="#5a3820" stroke-width="1.2"/><path d="M-20 -16 C-34 -16 -38 -32 -28 -38 C-34 -52 -20 -62 -8 -56 C-4 -70 16 -70 20 -56 C34 -60 42 -44 34 -36 C42 -28 34 -14 22 -16 C14 -8 -8 -8 -20 -16 Z" stroke="#2c5f31"/><path d="M-16 -40 C-12 -44 -8 -44 -6 -40 M8 -30 C12 -34 16 -34 18 -30 M4 -52 C6 -55 10 -55 12 -52" stroke="#2c5f31" stroke-width="1.1"/></g><use href="#L68" transform="translate(0.9 0.7)" opacity=".45"/></g></g></g><g transform="translate(28 296) scale(0.8)"><g filter="url(#pc)"><path d="M-6 0 C-5 -8 -5 -16 -4 -22 L5 -22 C4 -16 5 -8 7 0 Z" fill="url(#h-white)"/><path d="M-24 -20 C-23 -38 -10 -46 0 -46 C12 -46 24 -38 24 -20 C12 -24 -12 -24 -24 -20 Z" fill="url(#h-red)"/><path d="M-13 -33 m-3 0 a3 2.6 0 1 0 6 0 a3 2.6 0 1 0 -6 0 M5 -38 m-2.6 0 a2.6 2.2 0 1 0 5.2 0 a2.6 2.2 0 1 0 -5.2 0 M13 -28 m-2 0 a2 2 0 1 0 4 0 a2 2 0 1 0 -4 0 M-3 -27 m-2 0 a2 1.8 0 1 0 4 0 a2 1.8 0 1 0 -4 0" fill="url(#h-white)"/><g id="L69" fill="none" stroke-width="1.5" stroke-linecap="round" stroke-linejoin="round"><path d="M-6 0 C-5 -8 -5 -16 -4 -22 L5 -22 C4 -16 5 -8 7 0 Z" stroke="#7d7466"/><path d="M-24 -20 C-23 -38 -10 -46 0 -46 C12 -46 24 -38 24 -20 C12 -24 -12 -24 -24 -20 Z" stroke="#8a2416"/><path d="M-13 -33 m-3 0 a3 2.6 0 1 0 6 0 a3 2.6 0 1 0 -6 0 M5 -38 m-2.6 0 a2.6 2.2 0 1 0 5.2 0 a2.6 2.2 0 1 0 -5.2 0 M13 -28 m-2 0 a2 2 0 1 0 4 0 a2 2 0 1 0 -4 0 M-3 -27 m-2 0 a2 1.8 0 1 0 4 0 a2 1.8 0 1 0 -4 0" stroke="#8a2416" stroke-width="1.1"/></g><use href="#L69" transform="translate(0.9 0.7)" opacity=".45"/></g></g><g transform="translate(140 296) scale(1.1)"><g filter="url(#pc)"><g id="L70" fill="none" stroke-width="1.5" stroke-linecap="round" stroke-linejoin="round"><path d="M-10 0 Q-9 -8 -12 -13 M-5 0 Q-4 -10 -1 -15 M0 0 Q1 -7 6 -11 M5 0 Q7 -6 12 -8" stroke="#4d6d23" stroke-width="1.4"/></g><use href="#L70" transform="translate(0.9 0.7)" opacity=".45"/></g></g></svg>
