<svg xmlns="http://www.w3.org/2000/svg" xmlns:xlink="http://www.w3.org/1999/xlink" viewBox="0 0 640 150" width="640" height="150"><defs><filter id="pc" x="-8%" y="-8%" width="116%" height="116%" color-interpolation-filters="sRGB"><feTurbulence type="fractalNoise" baseFrequency="0.035" numOctaves="2" seed="4" result="w"/><feDisplacementMap in="SourceGraphic" in2="w" scale="2.4" xChannelSelector="R" yChannelSelector="G" result="s"/><feTurbulence type="fractalNoise" baseFrequency="1.1" numOctaves="1" seed="9" result="g"/><feColorMatrix in="g" type="matrix" values="0 0 0 0 0 0 0 0 0 0 0 0 0 0 0 -2 0 0 0 1.72" result="m"/><feComposite in="s" in2="m" operator="in"/></filter><pattern id="h-red" width="5" height="5" patternUnits="userSpaceOnUse" patternTransform="rotate(38)"><rect width="5" height="5" fill="#ee8f7b"/><path d="M0 0V5" stroke="#bf3522" stroke-width="1.80"/></pattern><pattern id="h-green" width="5" height="5" patternUnits="userSpaceOnUse" patternTransform="rotate(45)"><rect width="5" height="5" fill="#a9d196"/><path d="M0 0V5" stroke="#3f8a48" stroke-width="1.80"/></pattern><pattern id="h-pine" width="5" height="5" patternUnits="userSpaceOnUse" patternTransform="rotate(52)"><rect width="5" height="5" fill="#79ab84"/><path d="M0 0V5" stroke="#1f5e38" stroke-width="1.80"/></pattern><pattern id="h-moss" width="5" height="5" patternUnits="userSpaceOnUse" patternTransform="rotate(38)"><rect width="5" height="5" fill="#c3d98f"/><path d="M0 0V5" stroke="#6f9a33" stroke-width="1.80"/></pattern><pattern id="h-blue" width="5" height="5" patternUnits="userSpaceOnUse" patternTransform="rotate(45)"><rect width="5" height="5" fill="#b5d6ee"/><path d="M0 0V5" stroke="#3b7fb8" stroke-width="1.80"/></pattern><pattern id="h-ochre" width="5" height="5" patternUnits="userSpaceOnUse" patternTransform="rotate(52)"><rect width="5" height="5" fill="#f4d58f"/><path d="M0 0V5" stroke="#c48a1c" stroke-width="1.80"/></pattern><pattern id="h-plum" width="5" height="5" patternUnits="userSpaceOnUse" patternTransform="rotate(38)"><rect width="5" height="5" fill="#d3b0d2"/><path d="M0 0V5" stroke="#7b3f7a" stroke-width="1.80"/></pattern><pattern id="h-brown" width="5" height="5" patternUnits="userSpaceOnUse" patternTransform="rotate(45)"><rect width="5" height="5" fill="#d2ab83"/><path d="M0 0V5" stroke="#7a4f2c" stroke-width="1.80"/></pattern><pattern id="h-skin" width="5" height="5" patternUnits="userSpaceOnUse" patternTransform="rotate(52)"><rect width="5" height="5" fill="#f8d8bd"/><path d="M0 0V5" stroke="#e2a27c" stroke-width="1.80"/></pattern><pattern id="h-white" width="5" height="5" patternUnits="userSpaceOnUse" patternTransform="rotate(38)"><rect width="5" height="5" fill="#fffdf6"/><path d="M0 0V5" stroke="#ddd5c6" stroke-width="1.80"/></pattern><pattern id="h-nose" width="5" height="5" patternUnits="userSpaceOnUse" patternTransform="rotate(45)"><rect width="5" height="5" fill="#f4ab96"/><path d="M0 0V5" stroke="#d6705a" stroke-width="1.80"/></pattern><pattern id="h-sky" width="5" height="5" patternUnits="userSpaceOnUse" patternTransform="rotate(52)"><rect width="5" height="5" fill="#dcecf6"/><path d="M0 0V5" stroke="#9cc3de" stroke-width="1.80"/></pattern><pattern id="h-far" width="5" height="5" patternUnits="userSpaceOnUse" patternTransform="rotate(38)"><rect width="5" height="5" fill="#c9dcc4"/><path d="M0 0V5" stroke="#8fb192" stroke-width="1.80"/></pattern><pattern id="h-far2" width="5" height="5" patternUnits="userSpaceOnUse" patternTransform="rotate(45)"><rect width="5" height="5" fill="#b7cfc0"/><path d="M0 0V5" stroke="#7fa295" stroke-width="1.80"/></pattern><pattern id="h-glass" width="5" height="5" patternUnits="userSpaceOnUse" patternTransform="rotate(52)"><rect width="5" height="5" fill="#e6f3fb"/><path d="M0 0V5" stroke="#a9d0ea" stroke-width="1.80"/></pattern><pattern id="h-pink" width="5" height="5" patternUnits="userSpaceOnUse" patternTransform="rotate(38)"><rect width="5" height="5" fill="#f6c1cf"/><path d="M0 0V5" stroke="#d8708f" stroke-width="1.80"/></pattern><pattern id="h-gray" width="5" height="5" patternUnits="userSpaceOnUse" patternTransform="rotate(45)"><rect width="5" height="5" fill="#d9d4cc"/><path d="M0 0V5" stroke="#8c8378" stroke-width="1.80"/></pattern></defs><g filter="url(#pc)"><path d="M0 150 L0 118 C80 104 160 112 240 106 C340 98 420 116 520 108 C570 104 600 110 640 118 L640 150 Z" fill="url(#h-far)"/><g id="L30" fill="none" stroke-width="1.5" stroke-linecap="round" stroke-linejoin="round"></g><use href="#L30" transform="translate(0.9 0.7)" opacity=".45"/></g><g filter="url(#pc)"><g id="L31" fill="none" stroke-width="1.5" stroke-linecap="round" stroke-linejoin="round"><path d="M0 118 C80 104 160 112 240 106 C340 98 420 116 520 108 C570 104 600 110 640 118" stroke="#7c9e80" stroke-width="1.3"/></g><use href="#L31" transform="translate(0.9 0.7)" opacity=".45"/></g><g transform="translate(40 114) scale(0.6)"><g transform="translate(0 -9)"><g filter="url(#pc)"><path d="M-4 0 L-4 10 L4 10 L4 0" fill="url(#h-brown)"/><path d="M0 -78 L-11 -54 L-6 -55 L-19 -32 L-12 -33 L-27 -6 C-12 -2 12 -2 27 -6 L12 -33 L19 -32 L6 -55 L11 -54 Z" fill="url(#h-far2)"/><g id="L32" fill="none" stroke-width="1.5" stroke-linecap="round" stroke-linejoin="round"><path d="M-4 0 L-4 10 L4 10 L4 0" stroke="#5a3820"/><path d="M0 -78 L-11 -54 L-6 -55 L-19 -32 L-12 -33 L-27 -6 C-12 -2 12 -2 27 -6 L12 -33 L19 -32 L6 -55 L11 -54 Z" stroke="#6f9184"/><path d="M-6 -46 L2 -50 M-12 -24 L-2 -28 M4 -18 L14 -22" stroke="#6f9184" stroke-width="1.1"/></g><use href="#L32" transform="translate(0.9 0.7)" opacity=".45"/></g></g></g><g transform="translate(84 120) scale(0.9888888888888889)"><g transform="translate(0 -9)"><g filter="url(#pc)"><path d="M-4 0 L-4 10 L4 10 L4 0" fill="url(#h-brown)"/><path d="M0 -78 L-11 -54 L-6 -55 L-19 -32 L-12 -33 L-27 -6 C-12 -2 12 -2 27 -6 L12 -33 L19 -32 L6 -55 L11 -54 Z" fill="url(#h-far)"/><g id="L33" fill="none" stroke-width="1.5" stroke-linecap="round" stroke-linejoin="round"><path d="M-4 0 L-4 10 L4 10 L4 0" stroke="#5a3820"/><path d="M0 -78 L-11 -54 L-6 -55 L-19 -32 L-12 -33 L-27 -6 C-12 -2 12 -2 27 -6 L12 -33 L19 -32 L6 -55 L11 -54 Z" stroke="#7c9e80"/><path d="M-6 -46 L2 -50 M-12 -24 L-2 -28 M4 -18 L14 -22" stroke="#7c9e80" stroke-width="1.1"/></g><use href="#L33" transform="translate(0.9 0.7)" opacity=".45"/></g></g></g><g transform="translate(128 119) scale(0.74)"><g transform="translate(0 -9)"><g filter="url(#pc)"><path d="M-4 10 C-3 0 -4 -10 -3 -18 L3 -18 C3 -10 4 0 5 10 Z" fill="url(#h-brown)"/><path d="M-20 -16 C-34 -16 -38 -32 -28 -38 C-34 -52 -20 -62 -8 -56 C-4 -70 16 -70 20 -56 C34 -60 42 -44 34 -36 C42 -28 34 -14 22 -16 C14 -8 -8 -8 -20 -16 Z" fill="url(#h-far2)"/><g id="L34" fill="none" stroke-width="1.5" stroke-linecap="round" stroke-linejoin="round"><path d="M-4 10 C-3 0 -4 -10 -3 -18 L3 -18 C3 -10 4 0 5 10 Z" stroke="#5a3820"/><path d="M-3 -12 L-11 -22 M3 -14 L10 -24" stroke="#5a3820" stroke-width="1.2"/><path d="M-20 -16 C-34 -16 -38 -32 -28 -38 C-34 -52 -20 -62 -8 -56 C-4 -70 16 -70 20 -56 C34 -60 42 -44 34 -36 C42 -28 34 -14 22 -16 C14 -8 -8 -8 -20 -16 Z" stroke="#6f9184"/><path d="M-16 -40 C-12 -44 -8 -44 -6 -40 M8 -30 C12 -34 16 -34 18 -30 M4 -52 C6 -55 10 -55 12 -52" stroke="#6f9184" stroke-width="1.1"/></g><use href="#L34" transform="translate(0.9 0.7)" opacity=".45"/></g></g></g><g transform="translate(176 118) scale(0.6555555555555556)"><g transform="translate(0 -9)"><g filter="url(#pc)"><path d="M-4 0 L-4 10 L4 10 L4 0" fill="url(#h-brown)"/><path d="M0 -78 L-11 -54 L-6 -55 L-19 -32 L-12 -33 L-27 -6 C-12 -2 12 -2 27 -6 L12 -33 L19 -32 L6 -55 L11 -54 Z" fill="url(#h-far2)"/><g id="L35" fill="none" stroke-width="1.5" stroke-linecap="round" stroke-linejoin="round"><path d="M-4 0 L-4 10 L4 10 L4 0" stroke="#5a3820"/><path d="M0 -78 L-11 -54 L-6 -55 L-19 -32 L-12 -33 L-27 -6 C-12 -2 12 -2 27 -6 L12 -33 L19 -32 L6 -55 L11 -54 Z" stroke="#6f9184"/><path d="M-6 -46 L2 -50 M-12 -24 L-2 -28 M4 -18 L14 -22" stroke="#6f9184" stroke-width="1.1"/></g><use href="#L35" transform="translate(0.9 0.7)" opacity=".45"/></g></g></g><g transform="translate(222 117) scale(1.0444444444444443)"><g transform="translate(0 -9)"><g filter="url(#pc)"><path d="M-4 0 L-4 10 L4 10 L4 0" fill="url(#h-brown)"/><path d="M0 -78 L-11 -54 L-6 -55 L-19 -32 L-12 -33 L-27 -6 C-12 -2 12 -2 27 -6 L12 -33 L19 -32 L6 -55 L11 -54 Z" fill="url(#h-far)"/><g id="L36" fill="none" stroke-width="1.5" stroke-linecap="round" stroke-linejoin="round"><path d="M-4 0 L-4 10 L4 10 L4 0" stroke="#5a3820"/><path d="M0 -78 L-11 -54 L-6 -55 L-19 -32 L-12 -33 L-27 -6 C-12 -2 12 -2 27 -6 L12 -33 L19 -32 L6 -55 L11 -54 Z" stroke="#7c9e80"/><path d="M-6 -46 L2 -50 M-12 -24 L-2 -28 M4 -18 L14 -22" stroke="#7c9e80" stroke-width="1.1"/></g><use href="#L36" transform="translate(0.9 0.7)" opacity=".45"/></g></g></g><g transform="translate(264 116) scale(0.8777777777777778)"><g transform="translate(0 -9)"><g filter="url(#pc)"><path d="M-4 0 L-4 10 L4 10 L4 0" fill="url(#h-brown)"/><path d="M0 -78 L-11 -54 L-6 -55 L-19 -32 L-12 -33 L-27 -6 C-12 -2 12 -2 27 -6 L12 -33 L19 -32 L6 -55 L11 -54 Z" fill="url(#h-far)"/><g id="L37" fill="none" stroke-width="1.5" stroke-linecap="round" stroke-linejoin="round"><path d="M-4 0 L-4 10 L4 10 L4 0" stroke="#5a3820"/><path d="M0 -78 L-11 -54 L-6 -55 L-19 -32 L-12 -33 L-27 -6 C-12 -2 12 -2 27 -6 L12 -33 L19 -32 L6 -55 L11 -54 Z" stroke="#7c9e80"/><path d="M-6 -46 L2 -50 M-12 -24 L-2 -28 M4 -18 L14 -22" stroke="#7c9e80" stroke-width="1.1"/></g><use href="#L37" transform="translate(0.9 0.7)" opacity=".45"/></g></g></g><g transform="translate(312 115) scale(0.6399999999999999)"><g transform="translate(0 -9)"><g filter="url(#pc)"><path d="M-4 10 C-3 0 -4 -10 -3 -18 L3 -18 C3 -10 4 0 5 10 Z" fill="url(#h-brown)"/><path d="M-20 -16 C-34 -16 -38 -32 -28 -38 C-34 -52 -20 -62 -8 -56 C-4 -70 16 -70 20 -56 C34 -60 42 -44 34 -36 C42 -28 34 -14 22 -16 C14 -8 -8 -8 -20 -16 Z" fill="url(#h-far2)"/><g id="L38" fill="none" stroke-width="1.5" stroke-linecap="round" stroke-linejoin="round"><path d="M-4 10 C-3 0 -4 -10 -3 -18 L3 -18 C3 -10 4 0 5 10 Z" stroke="#5a3820"/><path d="M-3 -12 L-11 -22 M3 -14 L10 -24" stroke="#5a3820" stroke-width="1.2"/><path d="M-20 -16 C-34 -16 -38 -32 -28 -38 C-34 -52 -20 -62 -8 -56 C-4 -70 16 -70 20 -56 C34 -60 42 -44 34 -36 C42 -28 34 -14 22 -16 C14 -8 -8 -8 -20 -16 Z" stroke="#6f9184"/><path d="M-16 -40 C-12 -44 -8 -44 -6 -40 M8 -30 C12 -34 16 -34 18 -30 M4 -52 C6 -55 10 -55 12 -52" stroke="#6f9184" stroke-width="1.1"/></g><use href="#L38" transform="translate(0.9 0.7)" opacity=".45"/></g></g></g><g transform="translate(360 114) scale(1.1)"><g transform="translate(0 -9)"><g filter="url(#pc)"><path d="M-4 0 L-4 10 L4 10 L4 0" fill="url(#h-brown)"/><path d="M0 -78 L-11 -54 L-6 -55 L-19 -32 L-12 -33 L-27 -6 C-12 -2 12 -2 27 -6 L12 -33 L19 -32 L6 -55 L11 -54 Z" fill="url(#h-far)"/><g id="L39" fill="none" stroke-width="1.5" stroke-linecap="round" stroke-linejoin="round"><path d="M-4 0 L-4 10 L4 10 L4 0" stroke="#5a3820"/><path d="M0 -78 L-11 -54 L-6 -55 L-19 -32 L-12 -33 L-27 -6 C-12 -2 12 -2 27 -6 L12 -33 L19 -32 L6 -55 L11 -54 Z" stroke="#7c9e80"/><path d="M-6 -46 L2 -50 M-12 -24 L-2 -28 M4 -18 L14 -22" stroke="#7c9e80" stroke-width="1.1"/></g><use href="#L39" transform="translate(0.9 0.7)" opacity=".45"/></g></g></g><g transform="translate(404 120) scale(0.9333333333333333)"><g transform="translate(0 -9)"><g filter="url(#pc)"><path d="M-4 0 L-4 10 L4 10 L4 0" fill="url(#h-brown)"/><path d="M0 -78 L-11 -54 L-6 -55 L-19 -32 L-12 -33 L-27 -6 C-12 -2 12 -2 27 -6 L12 -33 L19 -32 L6 -55 L11 -54 Z" fill="url(#h-far)"/><g id="L40" fill="none" stroke-width="1.5" stroke-linecap="round" stroke-linejoin="round"><path d="M-4 0 L-4 10 L4 10 L4 0" stroke="#5a3820"/><path d="M0 -78 L-11 -54 L-6 -55 L-19 -32 L-12 -33 L-27 -6 C-12 -2 12 -2 27 -6 L12 -33 L19 -32 L6 -55 L11 -54 Z" stroke="#7c9e80"/><path d="M-6 -46 L2 -50 M-12 -24 L-2 -28 M4 -18 L14 -22" stroke="#7c9e80" stroke-width="1.1"/></g><use href="#L40" transform="translate(0.9 0.7)" opacity=".45"/></g></g></g><g transform="translate(448 119) scale(0.7666666666666666)"><g transform="translate(0 -9)"><g filter="url(#pc)"><path d="M-4 0 L-4 10 L4 10 L4 0" fill="url(#h-brown)"/><path d="M0 -78 L-11 -54 L-6 -55 L-19 -32 L-12 -33 L-27 -6 C-12 -2 12 -2 27 -6 L12 -33 L19 -32 L6 -55 L11 -54 Z" fill="url(#h-far2)"/><g id="L41" fill="none" stroke-width="1.5" stroke-linecap="round" stroke-linejoin="round"><path d="M-4 0 L-4 10 L4 10 L4 0" stroke="#5a3820"/><path d="M0 -78 L-11 -54 L-6 -55 L-19 -32 L-12 -33 L-27 -6 C-12 -2 12 -2 27 -6 L12 -33 L19 -32 L6 -55 L11 -54 Z" stroke="#6f9184"/><path d="M-6 -46 L2 -50 M-12 -24 L-2 -28 M4 -18 L14 -22" stroke="#6f9184" stroke-width="1.1"/></g><use href="#L41" transform="translate(0.9 0.7)" opacity=".45"/></g></g></g><g transform="translate(496 118) scale(0.54)"><g transform="translate(0 -9)"><g filter="url(#pc)"><path d="M-4 10 C-3 0 -4 -10 -3 -18 L3 -18 C3 -10 4 0 5 10 Z" fill="url(#h-brown)"/><path d="M-20 -16 C-34 -16 -38 -32 -28 -38 C-34 -52 -20 -62 -8 -56 C-4 -70 16 -70 20 -56 C34 -60 42 -44 34 -36 C42 -28 34 -14 22 -16 C14 -8 -8 -8 -20 -16 Z" fill="url(#h-far2)"/><g id="L42" fill="none" stroke-width="1.5" stroke-linecap="round" stroke-linejoin="round"><path d="M-4 10 C-3 0 -4 -10 -3 -18 L3 -18 C3 -10 4 0 5 10 Z" stroke="#5a3820"/><path d="M-3 -12 L-11 -22 M3 -14 L10 -24" stroke="#5a3820" stroke-width="1.2"/><path d="M-20 -16 C-34 -16 -38 -32 -28 -38 C-34 -52 -20 -62 -8 -56 C-4 -70 16 -70 20 -56 C34 -60 42 -44 34 -36 C42 -28 34 -14 22 -16 C14 -8 -8 -8 -20 -16 Z" stroke="#6f9184"/><path d="M-16 -40 C-12 -44 -8 -44 -6 -40 M8 -30 C12 -34 16 -34 18 -30 M4 -52 C6 -55 10 -55 12 -52" stroke="#6f9184" stroke-width="1.1"/></g><use href="#L42" transform="translate(0.9 0.7)" opacity=".45"/></g></g></g><g transform="translate(546 117) scale(0.9888888888888889)"><g transform="translate(0 -9)"><g filter="url(#pc)"><path d="M-4 0 L-4 10 L4 10 L4 0" fill="url(#h-brown)"/><path d="M0 -78 L-11 -54 L-6 -55 L-19 -32 L-12 -33 L-27 -6 C-12 -2 12 -2 27 -6 L12 -33 L19 -32 L6 -55 L11 -54 Z" fill="url(#h-far)"/><g id="L43" fill="none" stroke-width="1.5" stroke-linecap="round" stroke-linejoin="round"><path d="M-4 0 L-4 10 L4 10 L4 0" stroke="#5a3820"/><path d="M0 -78 L-11 -54 L-6 -55 L-19 -32 L-12 -33 L-27 -6 C-12 -2 12 -2 27 -6 L12 -33 L19 -32 L6 -55 L11 -54 Z" stroke="#7c9e80"/><path d="M-6 -46 L2 -50 M-12 -24 L-2 -28 M4 -18 L14 -22" stroke="#7c9e80" stroke-width="1.1"/></g><use href="#L43" transform="translate(0.9 0.7)" opacity=".45"/></g></g></g><g transform="translate(598 116) scale(0.8222222222222222)"><g transform="translate(0 -9)"><g filter="url(#pc)"><path d="M-4 0 L-4 10 L4 10 L4 0" fill="url(#h-brown)"/><path d="M0 -78 L-11 -54 L-6 -55 L-19 -32 L-12 -33 L-27 -6 C-12 -2 12 -2 27 -6 L12 -33 L19 -32 L6 -55 L11 -54 Z" fill="url(#h-far2)"/><g id="L44" fill="none" stroke-width="1.5" stroke-linecap="round" stroke-linejoin="round"><path d="M-4 0 L-4 10 L4 10 L4 0" stroke="#5a3820"/><path d="M0 -78 L-11 -54 L-6 -55 L-19 -32 L-12 -33 L-27 -6 C-12 -2 12 -2 27 -6 L12 -33 L19 -32 L6 -55 L11 -54 Z" stroke="#6f9184"/><path d="M-6 -46 L2 -50 M-12 -24 L-2 -28 M4 -18 L14 -22" stroke="#6f9184" stroke-width="1.1"/></g><use href="#L44" transform="translate(0.9 0.7)" opacity=".45"/></g></g></g></svg>
