<svg xmlns="http://www.w3.org/2000/svg" viewBox="0 0 200 200" width="200" height="200"><defs><filter id="pc" x="-8%" y="-8%" width="116%" height="116%" color-interpolation-filters="sRGB"><feTurbulence type="fractalNoise" baseFrequency="0.035" numOctaves="2" seed="7" result="w"/><feDisplacementMap in="SourceGraphic" in2="w" scale="2.2" xChannelSelector="R" yChannelSelector="G" result="s"/><feTurbulence type="fractalNoise" baseFrequency="0.9" numOctaves="1" seed="12" result="g"/><feColorMatrix in="g" type="matrix" values="0 0 0 0 0 0 0 0 0 0 0 0 0 0 0 -0.9 0 0 0 1.17" result="m"/><feComposite in="s" in2="m" operator="in"/></filter></defs><g filter="url(#pc)" fill="none" stroke="#4a3a2c" stroke-linecap="round" stroke-linejoin="round"><path d="M29 9.8 L171 8.52 C187 10 191.5 14 190.2 29 L191.4 171 C190 188 186 191.8 171 190.2 L29 191.32 C13 190 8.5 186 9.8 171 L8.68 29 C10 13 14 8 35 9.64" stroke-width="2.6"/><path d="M32 8.3 L168 9.42 C187 10 191.5 14 191.7 29 L190.65 171 C190 188 186 190.3 171 191.7 L29 190.72 C13 190 8.5 186 8.3 171 L9.28 29 C10 13 14 8 38 8.44" stroke-width="1.8199999999999998" opacity=".55"/></g></svg>
