<svg xmlns="http://www.w3.org/2000/svg" xmlns:xlink="http://www.w3.org/1999/xlink" viewBox="0 0 112 100" width="112" height="100"><defs><filter id="pc" x="-8%" y="-8%" width="116%" height="116%" color-interpolation-filters="sRGB"><feTurbulence type="fractalNoise" baseFrequency="0.035" numOctaves="2" seed="4" result="w"/><feDisplacementMap in="SourceGraphic" in2="w" scale="2.4" xChannelSelector="R" yChannelSelector="G" result="s"/><feTurbulence type="fractalNoise" baseFrequency="1.1" numOctaves="1" seed="9" result="g"/><feColorMatrix in="g" type="matrix" values="0 0 0 0 0 0 0 0 0 0 0 0 0 0 0 -2 0 0 0 1.72" result="m"/><feComposite in="s" in2="m" operator="in"/></filter><pattern id="h-red" width="4" height="4" patternUnits="userSpaceOnUse" patternTransform="rotate(38)"><rect width="4" height="4" fill="#ee8f7b"/><path d="M0 0V4" stroke="#bf3522" stroke-width="1.44"/></pattern><pattern id="h-green" width="4" height="4" patternUnits="userSpaceOnUse" patternTransform="rotate(45)"><rect width="4" height="4" fill="#a9d196"/><path d="M0 0V4" stroke="#3f8a48" stroke-width="1.44"/></pattern><pattern id="h-pine" width="4" height="4" patternUnits="userSpaceOnUse" patternTransform="rotate(52)"><rect width="4" height="4" fill="#79ab84"/><path d="M0 0V4" stroke="#1f5e38" stroke-width="1.44"/></pattern><pattern id="h-moss" width="4" height="4" patternUnits="userSpaceOnUse" patternTransform="rotate(38)"><rect width="4" height="4" fill="#c3d98f"/><path d="M0 0V4" stroke="#6f9a33" stroke-width="1.44"/></pattern><pattern id="h-blue" width="4" height="4" patternUnits="userSpaceOnUse" patternTransform="rotate(45)"><rect width="4" height="4" fill="#b5d6ee"/><path d="M0 0V4" stroke="#3b7fb8" stroke-width="1.44"/></pattern><pattern id="h-ochre" width="4" height="4" patternUnits="userSpaceOnUse" patternTransform="rotate(52)"><rect width="4" height="4" fill="#f4d58f"/><path d="M0 0V4" stroke="#c48a1c" stroke-width="1.44"/></pattern><pattern id="h-plum" width="4" height="4" patternUnits="userSpaceOnUse" patternTransform="rotate(38)"><rect width="4" height="4" fill="#d3b0d2"/><path d="M0 0V4" stroke="#7b3f7a" stroke-width="1.44"/></pattern><pattern id="h-brown" width="4" height="4" patternUnits="userSpaceOnUse" patternTransform="rotate(45)"><rect width="4" height="4" fill="#d2ab83"/><path d="M0 0V4" stroke="#7a4f2c" stroke-width="1.44"/></pattern><pattern id="h-skin" width="4" height="4" patternUnits="userSpaceOnUse" patternTransform="rotate(52)"><rect width="4" height="4" fill="#f8d8bd"/><path d="M0 0V4" stroke="#e2a27c" stroke-width="1.44"/></pattern><pattern id="h-white" width="4" height="4" patternUnits="userSpaceOnUse" patternTransform="rotate(38)"><rect width="4" height="4" fill="#fffdf6"/><path d="M0 0V4" stroke="#ddd5c6" stroke-width="1.44"/></pattern><pattern id="h-nose" width="4" height="4" patternUnits="userSpaceOnUse" patternTransform="rotate(45)"><rect width="4" height="4" fill="#f4ab96"/><path d="M0 0V4" stroke="#d6705a" stroke-width="1.44"/></pattern><pattern id="h-sky" width="4" height="4" patternUnits="userSpaceOnUse" patternTransform="rotate(52)"><rect width="4" height="4" fill="#dcecf6"/><path d="M0 0V4" stroke="#9cc3de" stroke-width="1.44"/></pattern><pattern id="h-far" width="4" height="4" patternUnits="userSpaceOnUse" patternTransform="rotate(38)"><rect width="4" height="4" fill="#c9dcc4"/><path d="M0 0V4" stroke="#8fb192" stroke-width="1.44"/></pattern><pattern id="h-far2" width="4" height="4" patternUnits="userSpaceOnUse" patternTransform="rotate(45)"><rect width="4" height="4" fill="#b7cfc0"/><path d="M0 0V4" stroke="#7fa295" stroke-width="1.44"/></pattern><pattern id="h-glass" width="4" height="4" patternUnits="userSpaceOnUse" patternTransform="rotate(52)"><rect width="4" height="4" fill="#e6f3fb"/><path d="M0 0V4" stroke="#a9d0ea" stroke-width="1.44"/></pattern><pattern id="h-pink" width="4" height="4" patternUnits="userSpaceOnUse" patternTransform="rotate(38)"><rect width="4" height="4" fill="#f6c1cf"/><path d="M0 0V4" stroke="#d8708f" stroke-width="1.44"/></pattern><pattern id="h-gray" width="4" height="4" patternUnits="userSpaceOnUse" patternTransform="rotate(45)"><rect width="4" height="4" fill="#d9d4cc"/><path d="M0 0V4" stroke="#8c8378" stroke-width="1.44"/></pattern></defs><g filter="url(#pc)"><path d="M66 100 L92 34 L101 37 L76 100 Z" fill="url(#h-ochre)"/><path d="M92 34 L101 37 L101.5 21 Z" fill="url(#h-skin)"/><path d="M98.5 27 L101.5 21 L101.8 28 Z" fill="url(#h-gray)"/><g id="L10" fill="none" stroke-width="1.5" stroke-linecap="round" stroke-linejoin="round"><path d="M66 100 L92 34 L101 37 L76 100 Z" stroke="#8a5d10"/><path d="M92 34 L101 37 L101.5 21 Z" stroke="#a8674a"/><path d="M98.5 27 L101.5 21 L101.8 28 Z" stroke="#5d554b"/><path d="M96.5 36 L71 100" stroke="#8a5d10" stroke-width="1"/></g><use href="#L10" transform="translate(0.9 0.7)" opacity=".45"/></g><g transform="translate(50 134) scale(1)"><g filter="url(#pc)"><path d="M-9 -2 C-15 -2 -16 4 -10 4 L-2 4 L-2 -4 Z M9 -2 C15 -2 16 4 10 4 L2 4 L2 -4 Z" fill="url(#h-brown)"/><path d="M-13 -30 C-16 -18 -16 -8 -13 -2 L13 -2 C16 -8 16 -18 13 -30 Z" fill="url(#h-plum)"/><path d="M-14 -14 L14 -14 L14 -10 L-14 -10 Z" fill="url(#h-ochre)"/><path d="M-15 -46 C-17 -32 -9 -20 0 -16 C9 -20 17 -32 15 -46 C11 -40 6 -38 0 -38 C-6 -38 -11 -40 -15 -46 Z" fill="url(#h-white)"/><path d="M-10 -50 C-10 -58 -5 -61 0 -61 C5 -61 10 -58 10 -50 C8 -45 -8 -45 -10 -50 Z" fill="url(#h-skin)"/><path d="M-4.5 -46 a4.5 4 0 1 0 9 0 a4.5 4 0 1 0 -9 0" fill="url(#h-nose)"/><path d="M-17 -52 C-10 -62 -6 -78 2 -96 C6 -100 12 -99 13 -94 C10 -95 7 -94 6 -90 C9 -76 13 -62 17 -52 C8 -56 -8 -56 -17 -52 Z" fill="url(#h-green)"/><g id="L11" fill="none" stroke-width="1.5" stroke-linecap="round" stroke-linejoin="round"><path d="M-9 -2 C-15 -2 -16 4 -10 4 L-2 4 L-2 -4 Z M9 -2 C15 -2 16 4 10 4 L2 4 L2 -4 Z" stroke="#5a3820"/><path d="M-13 -30 C-16 -18 -16 -8 -13 -2 L13 -2 C16 -8 16 -18 13 -30 Z" stroke="#5c2c5b"/><path d="M-14 -14 L14 -14 L14 -10 L-14 -10 Z" stroke="#8a5d10" stroke-width="1.1"/><path d="M-15 -46 C-17 -32 -9 -20 0 -16 C9 -20 17 -32 15 -46 C11 -40 6 -38 0 -38 C-6 -38 -11 -40 -15 -46 Z" stroke="#7d7466"/><path d="M-10 -50 C-10 -58 -5 -61 0 -61 C5 -61 10 -58 10 -50 C8 -45 -8 -45 -10 -50 Z" stroke="#a8674a"/><path d="M-4.5 -46 a4.5 4 0 1 0 9 0 a4.5 4 0 1 0 -9 0" stroke="#a24d3b"/><path d="M-5 -51.5 l0.2 0.2 M5 -51.5 l0.2 0.2" stroke="#2a211a" stroke-width="2.2"/><path d="M-17 -52 C-10 -62 -6 -78 2 -96 C6 -100 12 -99 13 -94 C10 -95 7 -94 6 -90 C9 -76 13 -62 17 -52 C8 -56 -8 -56 -17 -52 Z" stroke="#2c5f31"/></g><use href="#L11" transform="translate(0.9 0.7)" opacity=".45"/></g></g><g filter="url(#pc)"><path d="M22 100 C21 91 33 89 36 96 L36 100 Z" fill="url(#h-skin)"/><path d="M64 100 C63 91 75 89 78 96 L78 100 Z" fill="url(#h-skin)"/><g id="L12" fill="none" stroke-width="1.5" stroke-linecap="round" stroke-linejoin="round"><path d="M22 100 C21 91 33 89 36 96 L36 100 Z" stroke="#a8674a"/><path d="M64 100 C63 91 75 89 78 96 L78 100 Z" stroke="#a8674a"/><path d="M27 94 L27 100 M31 93 L31 100 M69 94 L69 100 M73 93 L73 100" stroke="#a8674a" stroke-width="1"/></g><use href="#L12" transform="translate(0.9 0.7)" opacity=".45"/></g></svg>
